<?xml version="1.0" encoding="UTF-8"?>
<svg id="OBJECTS" xmlns="http://www.w3.org/2000/svg" version="1.1" viewBox="0 0 70 70">
  <!-- Generator: Adobe Illustrator 30.2.1, SVG Export Plug-In . SVG Version: 2.1.1 Build 1)  -->
  <defs>
    <style>
      .st0, .st1 {
        fill: none;
      }

      .st1 {
        stroke: #fff;
        stroke-miterlimit: 10;
      }

      .st2 {
        fill: #fff;
      }
    </style>
  </defs>
  <circle class="st1" cx="35" cy="35" r="33.45"/>
  <circle class="st0" cx="35" cy="35" r="29.94" transform="translate(-.14 69.86) rotate(-89.77)"/>
  <g>
    <path class="st2" d="M34.99,19.4c5.01,0,5.61.02,7.59.11,1.83.08,2.82.39,3.49.65.88.34,1.5.75,2.16,1.4.66.66,1.06,1.28,1.4,2.16.26.66.56,1.66.65,3.49.09,1.98.11,2.57.11,7.59s-.02,5.61-.11,7.59c-.08,1.83-.39,2.82-.65,3.49-.34.88-.75,1.5-1.4,2.16-.66.66-1.28,1.06-2.16,1.4-.66.26-1.66.56-3.49.65-1.98.09-2.57.11-7.59.11s-5.61-.02-7.59-.11c-1.83-.08-2.82-.39-3.49-.65-.88-.34-1.5-.75-2.16-1.4-.66-.66-1.06-1.28-1.4-2.16-.26-.66-.56-1.66-.65-3.49-.09-1.98-.11-2.57-.11-7.59s.02-5.61.11-7.59c.08-1.83.39-2.82.65-3.49.34-.88.75-1.5,1.4-2.16.66-.66,1.28-1.06,2.16-1.4.66-.26,1.66-.56,3.49-.65,1.98-.09,2.57-.11,7.59-.11M34.99,16.02c-5.1,0-5.74.02-7.74.11s-3.36.41-4.56.87c-1.23.48-2.28,1.12-3.33,2.17-1.04,1.04-1.69,2.09-2.16,3.33-.46,1.19-.78,2.56-.87,4.56s-.11,2.64-.11,7.74.02,5.74.11,7.74.41,3.36.87,4.56c.48,1.23,1.12,2.28,2.16,3.33,1.04,1.04,2.09,1.69,3.33,2.17,1.19.46,2.56.78,4.56.87s2.64.11,7.74.11,5.74-.02,7.74-.11,3.36-.41,4.56-.87c1.23-.48,2.28-1.12,3.33-2.17s1.69-2.09,2.17-3.33c.46-1.19.78-2.56.87-4.56s.11-2.64.11-7.74-.02-5.74-.11-7.74-.41-3.36-.87-4.56c-.48-1.23-1.12-2.28-2.17-3.33-1.04-1.04-2.09-1.69-3.33-2.17-1.19-.46-2.56-.78-4.56-.87s-2.64-.11-7.74-.11"/>
    <path class="st2" d="M34.99,25.15c-5.32,0-9.64,4.32-9.64,9.64s4.32,9.64,9.64,9.64,9.64-4.32,9.64-9.64-4.32-9.64-9.64-9.64M34.99,41.05c-3.46,0-6.26-2.8-6.26-6.26s2.8-6.26,6.26-6.26,6.26,2.8,6.26,6.26-2.8,6.26-6.26,6.26"/>
    <path class="st2" d="M47.27,24.77c0,1.24-1.01,2.25-2.25,2.25s-2.25-1.01-2.25-2.25,1.01-2.25,2.25-2.25,2.25,1.01,2.25,2.25"/>
  </g>
</svg>