<?xml version="1.0" encoding="UTF-8"?>
<svg id="OBJECTS" xmlns="http://www.w3.org/2000/svg" version="1.1" viewBox="0 0 70 70">
  <!-- Generator: Adobe Illustrator 30.2.1, SVG Export Plug-In . SVG Version: 2.1.1 Build 1)  -->
  <defs>
    <style>
      .st0 {
        fill: none;
        stroke: #fff;
        stroke-miterlimit: 10;
      }

      .st1 {
        fill: #fff;
      }
    </style>
  </defs>
  <circle class="st0" cx="35" cy="35" r="33.45"/>
  <path class="st1" d="M17.41,34.55c-2.29.54-3.82,1.34-3.82,2.24s.92,2.05,2.22,2.28,4.12,1.15,5.66,2.06c2.45,1.45,1.07,5.96.54,8.1s-.92,3.44.31,3.52,3.14-.38,4.21-1.84,4.13-6.81,6.04-8.11c1.91-1.3,7.04-3.59,11.09-4.13s4.21-3.52,2.29-4.13-8.03-1.91-7.65-5.58,13.23-4.21,15.45-4.59,4.13-3.9,1.15-4.13-15.6-.15-17.28,0-4.36,3.9-5.28,5.2-3.36,5.43-6.35,6.42-8.56,2.68-8.56,2.68Z"/>
</svg>