<?xml version="1.0" encoding="UTF-8"?>
<svg id="OBJECTS" xmlns="http://www.w3.org/2000/svg" version="1.1" viewBox="0 0 70 70">
  <!-- Generator: Adobe Illustrator 30.2.1, SVG Export Plug-In . SVG Version: 2.1.1 Build 1)  -->
  <defs>
    <style>
      .st0, .st1 {
        fill: none;
      }

      .st1 {
        stroke: #fff;
        stroke-miterlimit: 10;
      }

      .st2 {
        fill: #fff;
      }
    </style>
  </defs>
  <circle class="st1" cx="35" cy="35" r="33.45"/>
  <circle class="st0" cx="35" cy="35" r="29.94" transform="translate(-.14 69.86) rotate(-89.77)"/>
  <path class="st2" d="M15.62,47.71c3.57,2.29,7.8,3.62,12.35,3.62,14.96,0,23.41-12.63,22.9-23.97,1.57-1.13,2.94-2.55,4.02-4.17-1.45.64-3,1.07-4.63,1.27,1.66-1,2.94-2.57,3.54-4.46-1.56.92-3.28,1.59-5.11,1.96-1.47-1.57-3.56-2.54-5.88-2.54-5.2,0-9.02,4.85-7.85,9.89-6.7-.34-12.63-3.54-16.61-8.42-2.11,3.62-1.09,8.36,2.49,10.76-1.32-.04-2.57-.41-3.65-1.01-.09,3.73,2.59,7.22,6.46,8-1.13.31-2.38.38-3.64.14,1.02,3.2,4,5.53,7.53,5.6-3.39,2.66-7.65,3.84-11.93,3.34h0Z"/>
</svg>