<?xml version="1.0" encoding="UTF-8"?>
<svg id="Capa_1" xmlns="http://www.w3.org/2000/svg" version="1.1" viewBox="0 0 677 677">
  <!-- Generator: Adobe Illustrator 30.3.0, SVG Export Plug-In . SVG Version: 2.1.3 Build 182)  -->
  <defs>
    <style>
      .st0 {
        fill: #9b0f0a;
        isolation: isolate;
      }

      .st1 {
        fill: #fff;
      }
    </style>
  </defs>
  <rect class="st0" width="677" height="677"/>
  <g>
    <path class="st1" d="M402.76,236.75c6.48-6.34,12.23-7.33,17.28-2.94,10.8,8.81,16.56,29.85-.72,54.3-15.84,22.03-51.85,58.71-69.12,84.64-18,27.39-18.73,48.43,5.76,47.44,29.52-.99,69.12-34.24,94.32-67.99,3.6-4.41,8.64-4.91,11.52-.49,2.89,4.39,2.89,16.63-6.47,30.32-18.73,26.91-64.09,53.81-103.69,52.35-38.88-1.48-59.05-17.12-59.05-40.11-23.04,20.06-55.44,38.16-90,38.16-66.97,0-80.65-62.14-20.88-121.32,58.33-57.71,115.21-79.73,151.21-79.73,30.96,0,45.36,16.16,43.92,35.23,9.37-11.74,18.01-22.01,25.93-29.85ZM345.15,256.8c-23.04-1.46-75.61,30.34-115.21,73.86-38.16,42.08-47.52,85.11-19.44,85.6,29.52.49,66.96-30.81,103.68-73.86,45.36-53.81,51.85-84.13,30.96-85.6Z"/>
    <path class="st1" d="M502.49,248.45c2.6-3.11,4.12-2.4,3.38,1.59l-4.14,22.21c-.74,3.99,1.97,7.25,6.03,7.25h23.85c4.06,0,4.44,1.55.86,3.45l-29.79,15.78c-3.59,1.9-7.13,6.72-7.87,10.71l-4.14,22.21c-.74,3.99-3.52,4.74-6.18,1.67l-9.97-11.53c-2.65-3.07-7.76-4.03-11.35-2.13l-29.79,15.78c-3.59,1.9-4.39.91-1.79-2.21l21.24-25.39c2.6-3.11,2.56-8.17-.09-11.24l-9.97-11.53c-2.65-3.07-1.51-5.58,2.55-5.58h23.85c4.06,0,9.51-2.55,12.11-5.66l21.24-25.39Z"/>
  </g>
</svg>